<?xml version="1.0" encoding="utf-8"?>
<!-- Generator: Adobe Illustrator 19.1.0, SVG Export Plug-In . SVG Version: 6.00 Build 0)  -->
<svg version="1.1" id="Layer_1" xmlns="http://www.w3.org/2000/svg" xmlns:xlink="http://www.w3.org/1999/xlink" x="0px" y="0px"
	 viewBox="-15 217.6 609 300" style="enable-background:new -15 217.6 609 300;" xml:space="preserve">
<style type="text/css">
	.st0{fill:#00958F;}
	.st1{fill:none;}
	.st2{font-family:'Arial-BoldMT';}
	.st3{font-size:59px;}
</style>
<g>
	<g>
		<g>
			<path class="st0" d="M68.3,287.6c-28.5,0-51.4,9-63.4,15.5v23.8c11.7-6.5,38-16.9,58.1-16.9c26.6,0,45.7,9.2,45.8,41.3v16.5
				C42,367.9-7.1,383.1-6.9,438.4c0.2,37.9,25.1,65.4,79,65.2c28.7,0,53.1-5.8,68.8-14.8l-0.2-133.7
				C140.7,304.1,106.7,287.5,68.3,287.6z M109,476.8c-8.4,4.7-21.1,7-34.1,7C44,484,25.6,467.6,25.4,437.5
				c-0.2-42.2,31.1-49.9,83.4-50L109,476.8z"/>
			<path class="st0" d="M431.5,480.6c-26.6,0-47.8-9.2-47.8-41.3l-0.4-214.8l-32,11.2l0.2,55.3h-23.8v21.4h23.8l0.2,123.3
				c0.2,50.9,34.1,67.5,72.5,67.5c18.7,0,35-3.9,50.9-9.9v-24.2C459.6,475.7,444.7,480.6,431.5,480.6z"/>
			<path class="st0" d="M241.2,287.4c-28.5,0.2-51.4,9-63.4,15.5v23.8c11.7-6.5,38-16.9,58.1-16.9c26.6,0,45.8,9.2,45.9,41.3v16.5
				c-67.1,0.2-116,15.2-115.9,70.5c0.2,37.9,25.1,65.4,79,65.2c28.9,0,53.1-5.8,69-14.8l-0.2-133.7
				C313.7,303.9,279.8,287.2,241.2,287.4z M282,476.5c-8.4,4.7-21.2,7-34.3,7c-30.9,0.2-49.3-16.3-49.3-46.3
				c-0.2-42.2,31.1-49.9,83.4-50L282,476.5z"/>
		</g>
		<g>
			<polygon class="st0" points="396.4,290.9 396.4,312.2 475,312.2 474.9,290.8 			"/>
			<polygon class="st0" points="396.5,347.9 475,347.8 475,326.3 396.5,326.4 			"/>
		</g>
	</g>
</g>
<rect x="504" y="460.5" class="st1" width="84.3" height="46.2"/>
<text transform="matrix(1 0 0 1 504.0185 502.7572)" class="st0 st2 st3">SA</text>
</svg>
